<svg height="512" width="512" xmlns="http://www.w3.org/2000/svg"><path d="M65.207 85.333l190.793 25 29.018-66.282L256 0C180.187 0 112.082 32.966 65.207 85.333z" fill="#fd445f"/><path d="M256 0v110.333l190.793-25C399.918 32.966 331.814 0 256 0z" fill="#e1105a"/><path d="M65.207 426.667L256 475.059l22.519-87.884L256 299.291 14.587 341.333c11.241 31.799 28.579 60.711 50.62 85.334z" fill="#79e1f5"/><path d="M14.587 170.667C5.152 197.359 0 226.076 0 256l256 33.212 22.519-75.566L256 133.052z" fill="#fff594"/><path d="M0 256c0 29.924 5.152 58.64 14.587 85.333H256l17.476-42.043L256 256z" fill="#1fc979"/><path d="M65.207 85.333c-22.041 24.623-39.38 53.535-50.62 85.333H256L278.519 128 256 85.333z" fill="#f8b400"/><path d="M446.793 426.667c22.041-24.623 39.379-53.535 50.62-85.333L256 290.577v184.482z" fill="#31c3e7"/><path d="M512 256c0-29.924-5.152-58.641-14.587-85.333L256 128v171.291z" fill="#fedd61"/><path d="M512 256H256v85.333h241.413C506.848 314.641 512 285.924 512 256z" fill="#19a995"/><path d="M446.793 85.333H256v85.333h241.413c-11.241-31.798-28.579-60.71-50.62-85.333z" fill="#fd9127"/><path d="M143.521 486.021c33.949 16.637 72.122 25.953 112.479 25.953l17.476-65.649L256 426.667H65.207c21.922 24.49 48.488 44.738 78.314 59.354z" fill="#b782d7"/><path d="M343.295 496.725c40.126-14.559 75.578-38.867 103.498-70.058H256V512c30.657 0 60.054-5.391 87.295-15.275z" fill="#9244c2"/><path d="M386.184 151.59c-31.454-31.454-82.633-31.45-114.085 0L256 167.67l-16.061-16.08c-31.452-31.454-82.631-31.453-114.085.001-15.237 15.236-23.628 35.494-23.628 57.043s8.391 41.806 23.628 57.043L256 395.841l130.183-130.165c31.455-31.453 31.455-82.632.001-114.086z" fill="#f1f8fc"/><g><path d="M239.939 151.59c-31.452-31.454-82.631-31.453-114.085.001-15.237 15.236-23.628 35.495-23.628 57.043s8.391 41.806 23.628 57.042L256 395.841l35.082-127.388L256 167.67z" fill="#f1f8fc"/><path d="M386.184 151.59c-31.454-31.454-82.633-31.45-114.085 0L256 167.67v228.171l130.183-130.165c31.455-31.453 31.455-82.632.001-114.086z" fill="#cfe6f3"/></g></svg>